<svg xmlns="http://www.w3.org/2000/svg"  viewBox="0 0 100 100" width="100px" height="100px"><path d="M 31 18 C 23.832 18 18 23.832 18 31 L 18 70 C 18 77.168 23.832 83 31 83 L 70 83 C 77.168 83 83 77.168 83 70 L 83 31 C 83 23.832 77.168 18 70 18 L 31 18 z M 31 20 L 70 20 C 76.065 20 81 24.935 81 31 L 81 70 C 81 76.065 76.065 81 70 81 L 31 81 C 24.935 81 20 76.065 20 70 L 20 31 C 20 24.935 24.935 20 31 20 z M 31.5 23 C 26.812 23 23 26.812 23 31.5 L 23 54.5 C 22.996 54.776 23.216188 55.003813 23.492188 55.007812 C 23.768187 55.011812 23.996 54.789672 24 54.513672 L 24 54.5 L 24 31.5 C 24 27.352 27.352 24 31.5 24 L 34.5 24 C 34.776 24.004 35.003813 23.783812 35.007812 23.507812 C 35.011812 23.231813 34.789672 23.004 34.513672 23 L 34.5 23 L 31.5 23 z M 37.5 23 C 37.224 22.996 36.996187 23.216188 36.992188 23.492188 C 36.988188 23.768187 37.210328 23.996 37.486328 24 L 37.5 24 L 69.5 24 C 73.648 24 77 27.352 77 31.5 L 77 69.5 C 77 73.648 73.648 77 69.5 77 L 65.5 77 C 65.224 76.996 64.996188 77.216188 64.992188 77.492188 C 64.988187 77.768187 65.210328 77.996 65.486328 78 L 65.5 78 L 69.5 78 C 74.188 78 78 74.188 78 69.5 L 78 31.5 C 78 26.812 74.188 23 69.5 23 L 37.5 23 z M 40.970703 25.984375 C 36.551703 25.984375 32.955078 29.578094 32.955078 33.996094 L 32.955078 55.496094 C 32.955078 65.701094 41.257891 74.003906 51.462891 74.003906 C 61.667891 74.003906 69.970703 65.701094 69.970703 55.496094 C 69.970703 45.291094 61.667891 36.988281 51.462891 36.988281 C 50.630891 36.988281 49.803375 37.045297 48.984375 37.154297 L 48.984375 33.996094 C 48.983375 29.578094 45.389703 25.984375 40.970703 25.984375 z M 40.970703 26.984375 C 44.837703 26.984375 47.984375 30.129094 47.984375 33.996094 L 47.984375 37.154297 C 47.984375 37.442297 48.107219 37.71625 48.324219 37.90625 C 48.507219 38.06725 48.743375 38.154297 48.984375 38.154297 C 49.028375 38.154297 49.071234 38.150531 49.115234 38.144531 C 49.892234 38.040531 50.681891 37.988281 51.462891 37.988281 C 61.115891 37.988281 68.970703 45.843094 68.970703 55.496094 C 68.970703 65.149094 61.115891 73.003906 51.462891 73.003906 C 41.809891 73.003906 33.955078 65.149094 33.955078 55.496094 L 33.955078 33.996094 C 33.955078 30.129094 37.102703 26.984375 40.970703 26.984375 z M 40.972656 28.982422 C 38.207656 28.982422 35.957031 31.232094 35.957031 33.996094 L 35.957031 55.494141 C 35.955031 64.046141 42.911891 71.003906 51.462891 71.003906 C 60.013891 71.003906 66.970703 64.047094 66.970703 55.496094 C 66.970703 46.945094 60.013891 39.988281 51.462891 39.988281 C 50.582891 39.988281 49.700844 40.063938 48.839844 40.210938 C 48.359844 40.292938 48.007812 40.707312 48.007812 41.195312 L 48.007812 43.154297 C 48.007812 43.446297 48.135422 43.722109 48.357422 43.912109 C 48.540422 44.069109 48.770813 44.154297 49.007812 44.154297 C 49.057812 44.154297 49.108203 44.149578 49.158203 44.142578 C 49.877203 44.032578 50.517734 44.009766 50.927734 44.009766 C 51.173734 44.009766 51.359797 44.018391 51.466797 44.025391 C 51.485797 44.026391 51.504437 44.027344 51.523438 44.027344 C 57.798437 44.064344 62.904297 49.198609 62.904297 55.474609 C 62.904297 61.786609 57.769031 66.921875 51.457031 66.921875 C 45.144031 66.921875 40.009766 61.786609 40.009766 55.474609 L 40.009766 33.992188 C 40.009766 33.440188 40.458766 32.992188 41.009766 32.992188 C 41.560766 32.992188 42.009766 33.440188 42.009766 33.992188 L 42.009766 55.474609 C 42.009766 60.683609 46.247031 64.921875 51.457031 64.921875 C 56.666031 64.921875 60.904297 60.683609 60.904297 55.474609 C 60.904297 50.264609 56.666031 46.025391 51.457031 46.025391 C 51.434031 46.025391 51.410281 46.026484 51.363281 46.021484 C 51.254281 46.014484 51.103828 46.007812 50.923828 46.007812 C 50.490828 46.007812 49.634578 46.040859 48.767578 46.255859 C 48.321578 46.366859 48.007813 46.766563 48.007812 47.226562 L 48.007812 49.507812 C 48.007812 49.841813 48.174125 50.154844 48.453125 50.339844 C 48.620125 50.450844 48.813813 50.507813 49.007812 50.507812 C 49.137813 50.507812 49.270531 50.482641 49.394531 50.431641 C 50.065531 50.150641 50.769234 50.007813 51.490234 50.007812 C 54.513234 50.007812 56.972656 52.467234 56.972656 55.490234 C 56.972656 58.513234 54.513234 60.972656 51.490234 60.972656 C 48.466234 60.972656 46.007812 58.513234 46.007812 55.490234 L 45.986328 33.996094 C 45.986328 31.232094 43.737656 28.982422 40.972656 28.982422 z M 40.970703 29.984375 C 43.183703 29.984375 44.984375 31.783094 44.984375 33.996094 L 45.005859 55.492188 C 45.005859 59.066187 47.913281 61.974609 51.488281 61.974609 C 55.062281 61.974609 57.970703 59.066188 57.970703 55.492188 C 57.970703 51.917187 55.062281 49.009766 51.488281 49.009766 C 50.624281 49.009766 49.782813 49.185766 49.007812 49.509766 L 49.007812 47.226562 C 49.706812 47.053562 50.441828 47.009766 50.923828 47.009766 C 51.076828 47.009766 51.204875 47.012531 51.296875 47.019531 C 51.349875 47.024531 51.403031 47.027344 51.457031 47.027344 C 56.115031 47.027344 59.904297 50.816609 59.904297 55.474609 C 59.904297 60.132609 56.115031 63.921875 51.457031 63.921875 C 46.799031 63.921875 43.009766 60.132609 43.009766 55.474609 L 43.009766 33.992188 C 43.009766 32.888188 42.113766 31.992188 41.009766 31.992188 C 39.905766 31.992188 39.009766 32.888188 39.009766 33.992188 L 39.009766 55.474609 C 39.009766 62.337609 44.593031 67.921875 51.457031 67.921875 C 58.320031 67.921875 63.904297 62.337609 63.904297 55.474609 C 63.904297 48.634609 58.359297 43.065391 51.529297 43.025391 C 51.409297 43.017391 51.202734 43.009766 50.927734 43.009766 C 50.447734 43.009766 49.765812 43.037297 49.007812 43.154297 L 49.007812 41.195312 C 49.815812 41.057313 50.636891 40.988281 51.462891 40.988281 C 59.461891 40.988281 65.970703 47.497094 65.970703 55.496094 C 65.970703 63.495094 59.461891 70.003906 51.462891 70.003906 C 43.463891 70.003906 36.955078 63.495094 36.955078 55.496094 L 36.955078 33.996094 C 36.955078 31.783094 38.757703 29.984375 40.970703 29.984375 z M 51.488281 52.009766 C 50.064281 52.009766 47.996094 53.367094 47.996094 55.496094 C 47.997094 57.413094 49.562281 58.974609 51.488281 58.974609 C 53.408281 58.974609 54.970703 57.412187 54.970703 55.492188 C 54.970703 53.571188 53.408281 52.009766 51.488281 52.009766 z M 51.488281 53.009766 C 52.857281 53.009766 53.970703 54.123187 53.970703 55.492188 C 53.970703 56.861187 52.857281 57.974609 51.488281 57.974609 C 50.119281 57.974609 48.996094 56.866094 48.996094 55.496094 C 48.996094 53.975094 50.528281 53.009766 51.488281 53.009766 z M 23.492188 56.992188 C 23.216188 56.996188 22.996 57.224 23 57.5 L 23 62.5 C 22.996 62.776 23.216188 63.003813 23.492188 63.007812 C 23.768187 63.011812 23.996 62.789672 24 62.513672 L 24 62.5 L 24 57.5 C 24.004 57.224 23.783812 56.997188 23.507812 56.992188 L 23.492188 56.992188 z M 23.492188 64.992188 C 23.216188 64.996187 22.996 65.224 23 65.5 L 23 69.5 C 23 74.188 26.812 78 31.5 78 L 61.5 78 C 61.776 78.004 62.003813 77.783812 62.007812 77.507812 C 62.011812 77.231813 61.789672 77.004 61.513672 77 L 61.5 77 L 31.5 77 C 27.352 77 24 73.648 24 69.5 L 24 65.5 C 24.004 65.224 23.783812 64.997188 23.507812 64.992188 L 23.492188 64.992188 z"/></svg>
